<?xml version="1.0" encoding="utf-8"?>
<!-- Generator: Adobe Illustrator 24.0.2, SVG Export Plug-In . SVG Version: 6.00 Build 0)  -->
<svg version="1.1" id="Layer_1" xmlns="http://www.w3.org/2000/svg" xmlns:xlink="http://www.w3.org/1999/xlink" x="0px" y="0px"
	 viewBox="0 0 50.1 24" style="enable-background:new 0 0 50.1 24;" xml:space="preserve">
<style type="text/css">
	.st0{fill:#173158;}
	.st1{fill:#65C8D6;}
</style>
<title>logo-nav-veda</title>
<g>
	<path class="st0" d="M15.8,22V5.3h9.3V9H20v2.6h5v3.7h-5.1v2.9h5.1V22L15.8,22z"/>
	<path class="st0" d="M35.1,22h-8.8V5.3h5.1c2.7-0.3,5.3,0.9,6.9,3.1c1,1.5,2.4,3.6,1.4,5.1C38,16.2,36.5,19.1,35.1,22z M32,9h-1.7
		v9.2H32c2.7,0,3.8-1.9,3.8-4.6S34.7,9,32,9z"/>
	<path class="st0" d="M45.2,22l-0.8-2.4h-5.8L37.7,22h-4.6l6.7-16.7h3.4L49.9,22H45.2z M41.6,10.5L41.6,10.5l-1.7,5.7h3.4L41.6,10.5
		z"/>
	<path class="st1" d="M14,22H7.9L0.2,5.3h6.1L10.9,17l0,0l4.7-11.7h6.1L14,22z"/>
</g>
</svg>
